<!-- Generated by IcoMoon.io -->
<svg version="1.1" xmlns="http://www.w3.org/2000/svg" width="1024" height="1024" viewBox="0 0 1024 1024">
<title></title>
<g id="icomoon-ignore">
</g>
<path d="M981.368 352.34h-112.849c-2.299-194.769-161.332-352.34-356.519-352.34s-354.22 157.571-356.31 352.34h-112.849c-39.915 3.135-44.095 37.407-42.005 49.737l99.474 586.397c3.553 20.48 21.316 35.527 42.005 35.527h739.37c20.898 0 38.661-15.047 42.005-35.527l99.683-586.397c2.090-12.33-2.926-46.811-42.005-49.737zM512 85.264c148.167 0 268.748 119.327 271.047 266.867h-542.093c2.299-147.54 122.88-266.867 271.047-266.867zM845.74 938.736h-667.272l-85.264-501.133h837.59l-85.055 501.133z"></path>
</svg>
