<!-- Generated by IcoMoon.io -->
<svg version="1.1" xmlns="http://www.w3.org/2000/svg" width="1024" height="1024" viewBox="0 0 1024 1024">
<title></title>
<g id="icomoon-ignore">
</g>
<path d="M577.164 514.088l432.873-432.873c18.617-18.617 18.617-46.547 0-65.164s-46.547-18.617-65.164 0l-432.873 432.873-432.873-432.873c-18.617-18.617-46.547-18.617-65.164 0s-18.617 46.547 0 65.164l432.868 432.873-432.868 432.868c-18.617 18.617-18.617 46.547 0 65.164 9.308 9.308 27.925 9.308 37.234 9.308s27.925 0 27.925-9.308l432.873-432.873 432.873 432.873c9.308 9.308 27.925 9.308 37.234 9.308s27.925 0 27.925-9.308c18.617-18.617 18.617-46.547 0-65.164l-432.862-432.868z"></path>
</svg>
