<!-- Generated by IcoMoon.io -->
<svg version="1.1" xmlns="http://www.w3.org/2000/svg" width="1132" height="1024" viewBox="0 0 1132 1024">
<title></title>
<g id="icomoon-ignore">
</g>
<path d="M815.318 2.257c-84.657 0-164.416 33.122-224.352 93.068l-24.721 24.725-25.187-25.191c-59.936-59.946-139.695-93.068-224.352-93.068-84.424 0-163.95 32.889-223.886 92.834s-92.819 139.485-92.819 224.155c0 84.671 33.116 164.209 93.053 224.155l445.206 445.278c7.696 7.697 17.958 11.429 27.986 11.429 10.261 0 20.523-3.965 28.219-11.663l444.273-444.345c59.936-59.946 93.053-139.485 93.053-224.155s-32.883-164.443-92.819-224.155c-59.703-60.179-139.229-93.068-223.653-93.068zM982.299 486.955l-415.821 416.122-416.754-416.821c-44.777-44.784-69.498-104.264-69.731-167.708 0-63.211 24.488-122.691 69.265-167.475 44.777-44.551 104.247-69.276 167.215-69.276 63.434 0 122.904 24.725 167.914 69.742l53.406 53.415c14.926 14.928 41.512 14.928 56.671 0l53.173-53.181c44.777-44.784 104.48-69.509 167.681-69.509s122.671 24.725 167.448 69.509c44.777 44.784 69.498 104.264 69.265 167.708 0 63.211-24.721 122.691-69.731 167.475z"></path>
</svg>
