<?xml version="1.0" encoding="UTF-8"?>
<svg width="13px" height="18px" viewBox="0 0 13 18" version="1.1" xmlns="http://www.w3.org/2000/svg" xmlns:xlink="http://www.w3.org/1999/xlink">
    <!-- Generator: Sketch 47.1 (45422) - http://www.bohemiancoding.com/sketch -->
    <title>icon-tailored</title>
    <desc>Created with Sketch.</desc>
    <defs></defs>
    <g id="Item-Page" stroke="none" stroke-width="1" fill="none" fill-rule="evenodd">
        <g id="Item-Page-1600" transform="translate(-1350.000000, -420.000000)" fill-rule="nonzero" fill="#FFFFFF">
            <g id="Right-Block" transform="translate(934.000000, 403.000000)">
                <g id="Tailored" transform="translate(1.000000, 0.000000)">
                    <g id="icon-tailored" transform="translate(415.000000, 17.000000)">
                        <path d="M5.70468293,0 C4.8977561,0 3.13902439,0.384731707 2.76058537,3.63887805 L0.0104390244,3.63887805 L0.0104390244,5.10229268 L2.68887805,5.10229268 C2.74043902,8.34302439 4.89931707,17.576 4.99229268,17.9720976 L6.41697561,17.9720976 C6.50995122,17.576 8.66882927,8.34302439 8.72039024,5.10229268 L12.2055122,5.10229268 L12.2055122,3.63887805 L8.64868293,3.63887805 C8.27034146,0.384731707 6.51160976,0 5.70468293,0 Z M5.70463415,14.4414634 C5.04029268,11.345122 4.15126829,6.85282927 4.15126829,4.98717073 C4.15126829,3.92765854 4.30263415,1.46341463 5.70468293,1.46341463 C6.65014634,1.46341463 7.02682927,2.58409756 7.17190244,3.63887805 L5.86409756,3.63887805 L5.86409756,5.10229268 L7.25687805,5.10229268 C7.22253659,7.0315122 6.35570732,11.4067805 5.70463415,14.4414634 Z" id="XMLID_1154_"></path>
                    </g>
                </g>
            </g>
        </g>
    </g>
</svg>