<!-- Generated by IcoMoon.io -->
<svg version="1.1" xmlns="http://www.w3.org/2000/svg" width="1365" height="1024" viewBox="0 0 1365 1024">
<title></title>
<g id="icomoon-ignore">
</g>
<path d="M58.465 119.795h1247.258c32.156 0 58.465-26.309 58.465-58.465s-26.309-58.465-58.465-58.465h-1247.258c-32.156 0-58.465 26.309-58.465 58.465s26.309 58.465 58.465 58.465z"></path>
<path d="M194.998 558.284h974.191c32.156 0 58.465-26.309 58.465-58.465s-26.309-58.465-58.465-58.465h-974.191c-32.156 0-58.465 26.309-58.465 58.465s26.309 58.465 58.465 58.465z"></path>
<path d="M58.465 996.772h1247.258c32.156 0 58.465-26.309 58.465-58.465s-26.309-58.465-58.465-58.465h-1247.258c-32.156 0-58.465 26.309-58.465 58.465s26.309 58.465 58.465 58.465z"></path>
</svg>
