<?xml version="1.0" encoding="UTF-8"?>
<svg width="32px" height="42px" viewBox="0 0 32 42" version="1.1" xmlns="http://www.w3.org/2000/svg" xmlns:xlink="http://www.w3.org/1999/xlink">
    <!-- Generator: Sketch 47.1 (45422) - http://www.bohemiancoding.com/sketch -->
    <title>pin</title>
    <desc>Created with Sketch.</desc>
    <defs></defs>
    <g id="Contacts" stroke="none" stroke-width="1" fill="none" fill-rule="evenodd">
        <g id="Contacts-1600" transform="translate(-571.000000, -601.000000)" fill-rule="nonzero" fill="#000000">
            <g id="Map" transform="translate(111.000000, 369.000000)">
                <g id="pin" transform="translate(460.000000, 232.000000)">
                    <path d="M15.9960942,0 C7.17609395,0 0,7.17609395 0,15.9960942 C0,19.486524 1.10250003,22.8030475 3.19101571,25.5855476 L15.0100785,41.5037941 C15.0396098,41.5423488 15.084727,41.5571144 15.1175395,41.5915675 C15.7081645,42.2240285 16.5604692,42.0648879 16.9812895,41.5037941 C20.3847662,36.962544 26.6232429,28.4812508 29.0218367,25.2820319 C29.0218367,25.2820319 29.022657,25.279571 29.0234774,25.2779304 L29.038243,25.2582429 C30.9708993,22.5430084 31.9921884,19.3405083 31.9921884,15.9960942 C31.9921884,7.17609395 24.8160944,0 15.9960942,0 Z M15.9960942,26.1802742 C10.391891,26.1802742 5.81191422,21.6002974 5.81191422,15.9960942 C5.81191422,10.391891 10.391891,5.81191422 15.9960942,5.81191422 C21.6002974,5.81191422 26.1802742,10.391891 26.1802742,15.9960942 C26.1802742,21.6002974 21.6002974,26.1802742 15.9960942,26.1802742 Z" id="Shape"></path>
                </g>
            </g>
        </g>
    </g>
</svg>