<!-- Generated by IcoMoon.io -->
<svg version="1.1" xmlns="http://www.w3.org/2000/svg" width="1024" height="1024" viewBox="0 0 1024 1024">
<title></title>
<g id="icomoon-ignore">
</g>
<path d="M1011.461 951.275l-246.178-246.178c61.022-74.397 97.802-169.691 97.802-273.554 0-238.237-193.306-431.543-431.543-431.543-238.446 0-431.543 193.306-431.543 431.543s193.097 431.543 431.543 431.543c103.863 0 198.949-36.571 273.345-97.593l246.178 245.969c16.718 16.718 43.677 16.718 60.395 0 16.718-16.509 16.718-43.677 0-60.186zM431.543 777.195c-190.798 0-345.861-155.063-345.861-345.652s155.063-345.861 345.861-345.861c190.589 0 345.861 155.272 345.861 345.861s-155.272 345.652-345.861 345.652z"></path>
</svg>
