<svg width="32" height="42" viewBox="0 0 32 42" xmlns="http://www.w3.org/2000/svg"><title>pin</title><path d="M15.996 0C7.176 0 0 7.176 0 15.996a15.86 15.86 0 0 0 3.191 9.59l11.82 15.918c.029.038.074.053.107.088.59.632 1.442.473 1.863-.088 3.404-4.541 9.642-13.023 12.04-16.222l.002-.004.015-.02a15.882 15.882 0 0 0 2.954-9.262C31.992 7.176 24.816 0 15.996 0zm0 26.18c-5.604 0-10.184-4.58-10.184-10.184 0-5.604 4.58-10.184 10.184-10.184 5.604 0 10.184 4.58 10.184 10.184 0 5.604-4.58 10.184-10.184 10.184z"/></svg>