<svg xmlns="http://www.w3.org/2000/svg" width="1024" height="1024" viewBox="0 0 1024 1024"><title/><path d="M1011.461 951.275L765.283 705.097c61.022-74.397 97.802-169.691 97.802-273.554C863.085 193.306 669.779 0 431.542 0 193.096 0-.001 193.306-.001 431.543s193.097 431.543 431.543 431.543c103.863 0 198.949-36.571 273.345-97.593l246.178 245.969c16.718 16.718 43.677 16.718 60.395 0 16.718-16.509 16.718-43.677 0-60.186zm-579.918-174.08c-190.798 0-345.861-155.063-345.861-345.652S240.745 85.682 431.543 85.682c190.589 0 345.861 155.272 345.861 345.861S622.132 777.195 431.543 777.195z"/></svg>