<?xml version="1.0" encoding="UTF-8"?><!DOCTYPE svg PUBLIC "-//W3C//DTD SVG 1.1//EN" "http://www.w3.org/Graphics/SVG/1.1/DTD/svg11.dtd"><svg xmlns="http://www.w3.org/2000/svg"><symbol id="arrow-s" viewBox="0 0 1024 1024"><title/><path d="M1008.599 506.369c20.535-19.789 20.535-50.943 0-70.732-19.841-19.12-52.863-19.12-72.657 0L563.776 794.289V161.163c0-27.589-22.755-50.23-51.383-50.23s-52.123 22.641-52.123 50.23v633.126L88.798 435.637c-20.535-19.12-53.603-19.12-73.397 0-20.535 19.789-20.535 50.943 0 70.732l460.27 443.557c19.841 19.12 52.863 19.12 72.657 0l460.27-443.557z"/></symbol><symbol id="basket" viewBox="0 0 1024 1024"><title/><path d="M981.368 352.34H868.519C866.22 157.571 707.187 0 512 0S157.78 157.571 155.69 352.34H42.841C2.926 355.475-1.254 389.747.836 402.077l99.474 586.397c3.553 20.48 21.316 35.527 42.005 35.527h739.37c20.898 0 38.661-15.047 42.005-35.527l99.683-586.397c2.09-12.33-2.926-46.811-42.005-49.737zM512 85.264c148.167 0 268.748 119.327 271.047 266.867H240.954c2.299-147.54 122.88-266.867 271.047-266.867zm333.74 853.472H178.468L93.204 437.603h837.59l-85.055 501.133z"/></symbol><symbol id="cancel" viewBox="0 0 1024 1024"><title/><path d="M577.164 514.088l432.873-432.873c18.617-18.617 18.617-46.547 0-65.164s-46.547-18.617-65.164 0L512 448.924 79.127 16.051c-18.617-18.617-46.547-18.617-65.164 0s-18.617 46.547 0 65.164l432.868 432.873L13.963 946.956c-18.617 18.617-18.617 46.547 0 65.164 9.308 9.308 27.925 9.308 37.234 9.308s27.925 0 27.925-9.308l432.873-432.873 432.873 432.873c9.308 9.308 27.925 9.308 37.234 9.308s27.925 0 27.925-9.308c18.617-18.617 18.617-46.547 0-65.164L577.165 514.088z"/></symbol><symbol id="hearth-full" viewBox="0 0 1024 1024"><title/><path d="M639.886 269.702c-44.057 0-85.565 16.24-116.757 45.632l-12.865 12.123-13.108-12.352c-31.192-29.392-72.7-45.632-116.757-45.632-43.936 0-85.323 16.126-116.514 45.518s-48.305 68.391-48.305 109.906 17.234 80.514 48.426 109.906L495.7 753.128c4.005 3.774 9.345 5.604 14.564 5.604 5.34 0 10.68-1.944 14.686-5.718l231.208-217.868c31.192-29.392 48.426-68.391 48.426-109.906s-17.113-80.628-48.305-109.906c-31.071-29.507-72.457-45.632-116.393-45.632z"/></symbol><symbol id="hearth" viewBox="0 0 1132 1024"><title/><path d="M815.318 2.257c-84.657 0-164.416 33.122-224.352 93.068l-24.721 24.725-25.187-25.191C481.122 34.913 401.363 1.791 316.706 1.791c-84.424 0-163.95 32.889-223.886 92.834S.001 234.11.001 318.78c0 84.671 33.116 164.209 93.053 224.155L538.26 988.213c7.696 7.697 17.958 11.429 27.986 11.429 10.261 0 20.523-3.965 28.219-11.663l444.273-444.345c59.936-59.946 93.053-139.485 93.053-224.155s-32.883-164.443-92.819-224.155C979.269 35.145 899.743 2.256 815.319 2.256zm166.981 484.698L566.478 903.077 149.724 486.256c-44.777-44.784-69.498-104.264-69.731-167.708 0-63.211 24.488-122.691 69.265-167.475 44.777-44.551 104.247-69.276 167.215-69.276 63.434 0 122.904 24.725 167.914 69.742l53.406 53.415c14.926 14.928 41.512 14.928 56.671 0l53.173-53.181c44.777-44.784 104.48-69.509 167.681-69.509s122.671 24.725 167.448 69.509 69.498 104.264 69.265 167.708c0 63.211-24.721 122.691-69.731 167.475z"/></symbol><symbol id="instagram" viewBox="0 0 1024 1024"><title/><path d="M737.316 0H281.022C126.067 0 0 126.072 0 281.028v456.294c0 154.961 126.066 281.028 281.022 281.028h456.294c154.967 0 281.034-126.072 281.034-281.028V281.028C1018.356 126.073 892.284 0 737.316 0zm190.687 737.322c0 105.141-85.54 190.675-190.681 190.675h-456.3c-105.135.006-190.669-85.534-190.669-190.675V281.028c0-105.135 85.534-190.675 190.669-190.675h456.294c105.141 0 190.681 85.54 190.681 190.675v456.294h.006z"/><path d="M509.175 246.784c-144.691 0-262.403 117.712-262.403 262.403 0 144.685 117.712 262.391 262.403 262.391s262.403-117.706 262.403-262.391c0-144.691-117.712-262.403-262.403-262.403zm0 434.435c-94.865 0-172.05-77.173-172.05-172.038 0-94.871 77.179-172.05 172.05-172.05s172.05 77.179 172.05 172.05c0 94.865-77.186 172.038-172.05 172.038zM782.583 170.171c-17.408 0-34.509 7.048-46.803 19.396-12.354 12.288-19.456 29.395-19.456 46.863 0 17.414 7.108 34.515 19.456 46.863 12.288 12.288 29.395 19.396 46.803 19.396 17.468 0 34.515-7.108 46.863-19.396 12.348-12.348 19.396-29.455 19.396-46.863 0-17.468-7.048-34.575-19.396-46.863-12.288-12.348-29.395-19.396-46.863-19.396z"/></symbol><symbol id="menu-options" viewBox="0 0 1365 1024"><title/><path d="M58.465 119.795h1247.258c32.156 0 58.465-26.309 58.465-58.465s-26.309-58.465-58.465-58.465H58.465C26.309 2.865 0 29.174 0 61.33s26.309 58.465 58.465 58.465zM194.998 558.284h974.191c32.156 0 58.465-26.309 58.465-58.465s-26.309-58.465-58.465-58.465H194.998c-32.156 0-58.465 26.309-58.465 58.465s26.309 58.465 58.465 58.465zM58.465 996.772h1247.258c32.156 0 58.465-26.309 58.465-58.465s-26.309-58.465-58.465-58.465H58.465C26.309 879.842 0 906.151 0 938.307s26.309 58.465 58.465 58.465z"/></symbol><symbol id="search" viewBox="0 0 1024 1024"><title/><path d="M1011.461 951.275L765.283 705.097c61.022-74.397 97.802-169.691 97.802-273.554C863.085 193.306 669.779 0 431.542 0 193.096 0-.001 193.306-.001 431.543s193.097 431.543 431.543 431.543c103.863 0 198.949-36.571 273.345-97.593l246.178 245.969c16.718 16.718 43.677 16.718 60.395 0 16.718-16.509 16.718-43.677 0-60.186zm-579.918-174.08c-190.798 0-345.861-155.063-345.861-345.652S240.745 85.682 431.543 85.682c190.589 0 345.861 155.272 345.861 345.861S622.132 777.195 431.543 777.195z"/></symbol></svg>