<?xml version="1.0" encoding="UTF-8"?>
<svg width="116px" height="30px" viewBox="0 0 116 30" version="1.1" xmlns="http://www.w3.org/2000/svg" xmlns:xlink="http://www.w3.org/1999/xlink">
    <!-- Generator: Sketch 47.1 (45422) - http://www.bohemiancoding.com/sketch -->
    <title>paypal</title>
    <desc>Created with Sketch.</desc>
    <defs></defs>
    <g id="Checkout" stroke="none" stroke-width="1" fill="none" fill-rule="evenodd">
        <g id="Checkout-1600" transform="translate(-195.000000, -538.000000)">
            <g id="Form" transform="translate(103.000000, 394.000000)">
                <g id="Payment-method" transform="translate(47.000000, 68.000000)">
                    <g id="Paypal" transform="translate(3.000000, 76.000000)">
                        <g id="paypal" transform="translate(42.000000, 0.000000)">
                            <path d="M111.714459,8.14010144 L109.13329,24.5066774 C109.083012,24.8234707 109.328722,25.1103626 109.650659,25.1103626 L112.247236,25.1103626 C112.677026,25.1103626 113.043563,24.7984182 113.110059,24.3749496 L115.655548,8.30253882 C115.705826,7.98574552 115.460116,7.69885364 115.137368,7.69885364 L112.23264,7.69885364 C111.973955,7.69885364 111.754195,7.8855354 111.714459,8.14010144" id="l" fill="#9A9A9A"></path>
                            <path d="M103.967706,19.3385827 C103.676585,21.0534689 102.310989,22.2050771 100.568314,22.2050771 C99.6949496,22.2050771 98.9951225,21.9246504 98.5458708,21.3945066 C98.0998629,20.8692116 97.9328126,20.1200601 98.0739133,19.2868614 C98.3447618,17.5865219 99.733063,16.398547 101.448977,16.398547 C102.304502,16.398547 102.998652,16.6813982 103.456824,17.2163909 C103.91824,17.7554244 104.099887,18.5086166 103.967706,19.3385827 M108.165047,13.4964942 L105.153276,13.4964942 C104.895403,13.4964942 104.675642,13.6831759 104.635096,13.937742 L104.502916,14.7765977 L104.292076,14.4727347 C103.640093,13.5296282 102.186107,13.213643 100.734554,13.213643 C97.4073341,13.213643 94.5650468,15.7269776 94.0119969,19.2513029 C93.724119,21.009829 94.1328245,22.6899648 95.1335043,23.8625849 C96.0522807,24.9398437 97.3635442,25.3883649 98.926194,25.3883649 C101.608729,25.3883649 103.095963,23.6718624 103.095963,23.6718624 L102.96135,24.5058693 C102.911073,24.8226626 103.156783,25.1095544 103.47953,25.1095544 L106.191259,25.1095544 C106.621859,25.1095544 106.987586,24.7984182 107.054892,24.3749496 L108.683227,14.1001793 C108.733504,13.7833861 108.486983,13.4964942 108.165047,13.4964942" id="a" fill="#9A9A9A"></path>
                            <path d="M90.0919921,13.5684192 C89.7481605,15.8182981 88.0241369,15.8182981 86.356067,15.8182981 L85.4072864,15.8182981 L86.0730547,11.6175544 C86.1127899,11.3637965 86.3325502,11.1771147 86.5904239,11.1771147 L87.0258899,11.1771147 C88.161183,11.1771147 89.233224,11.1771147 89.7862739,11.8212072 C90.1171308,12.2066929 90.2168744,12.7788604 90.0919921,13.5684192 M89.3662155,7.69804549 L83.0766919,7.69804549 C82.6460915,7.69804549 82.2803649,8.00998991 82.2130583,8.43345849 L79.6700018,24.5058693 C79.6197245,24.8226626 79.8662453,25.1095544 80.1873711,25.1095544 L83.4148471,25.1095544 C83.7156997,25.1095544 83.9719516,24.891355 84.0189852,24.5955735 L84.7407072,20.0384373 C84.8072029,19.6149687 85.1737404,19.3030243 85.6035299,19.3030243 L87.5935365,19.3030243 C91.7365452,19.3030243 94.127959,17.305287 94.7523702,13.3445627 C95.0337607,11.6135136 94.7637231,10.2525955 93.9503667,9.29979117 C93.055918,8.25243376 91.4705623,7.69804549 89.3662155,7.69804549" id="P" fill="#9A9A9A"></path>
                            <path d="M79.3456323,13.4964942 L76.3184545,13.4964942 C76.0289547,13.4964942 75.7581063,13.639536 75.5959215,13.8787473 L71.4196649,20.0077277 L69.6502296,14.1179586 C69.539133,13.7494439 69.1985451,13.4964942 68.8125455,13.4964942 L65.8372667,13.4964942 C65.4780275,13.4964942 65.2250194,13.8488459 65.3409815,14.1874591 L68.6738775,23.9385507 L65.5388468,28.3469879 C65.293137,28.6928745 65.5412796,29.171297 65.9670145,29.171297 L68.9909487,29.171297 C69.2772047,29.171297 69.5456204,29.0314877 69.709427,28.7971253 L79.7762328,14.3167625 C80.0170771,13.9700678 79.7689345,13.4964942 79.3456323,13.4964942" id="y" fill="#9A9A9A"></path>
                            <path d="M59.1074116,19.3385827 C58.81629,21.0534689 57.4506947,22.2050771 55.7080198,22.2050771 C54.8346551,22.2050771 54.134828,21.9246504 53.6855763,21.3945066 C53.2403792,20.8692116 53.072518,20.1200601 53.2136187,19.2868614 C53.4844672,17.5865219 54.8727685,16.398547 56.5886828,16.398547 C57.4442073,16.398547 58.1383579,16.6813982 58.5965297,17.2163909 C59.0579453,17.7554244 59.2395922,18.5086166 59.1074116,19.3385827 M63.3047523,13.4964942 L60.2929819,13.4964942 C60.0351082,13.4964942 59.8153479,13.6831759 59.7748017,13.937742 L59.6426212,14.7765977 L59.432592,14.4727347 C58.7797985,13.5296282 57.3258124,13.213643 55.8742591,13.213643 C52.5470395,13.213643 49.7047523,15.7269776 49.1517023,19.2513029 C48.8638245,21.009829 49.27253,22.6899648 50.2732097,23.8625849 C51.1919862,24.9398437 52.5032497,25.3883649 54.0658995,25.3883649 C56.7484348,25.3883649 58.2356687,23.6718624 58.2356687,23.6718624 L58.1010554,24.5058693 C58.0507781,24.8226626 58.296488,25.1095544 58.6192356,25.1095544 L61.3309642,25.1095544 C61.7615646,25.1095544 62.1272912,24.7984182 62.1945978,24.3749496 L63.8229324,14.1001793 C63.8732097,13.7833861 63.6266889,13.4964942 63.3047523,13.4964942" id="a" fill="#9A9A9A"></path>
                            <path d="M45.2316976,13.5684192 C44.887866,15.8182981 43.1638423,15.8182981 41.4957725,15.8182981 L40.5469918,15.8182981 L41.2127601,11.6175544 C41.2524954,11.3637965 41.4722557,11.1771147 41.7301294,11.1771147 L42.1655954,11.1771147 C43.3008884,11.1771147 44.3729295,11.1771147 44.9259794,11.8212072 C45.2568362,12.2066929 45.3565798,12.7788604 45.2316976,13.5684192 M44.5059209,7.69804549 L38.2163974,7.69804549 C37.7857969,7.69804549 37.4200704,8.00998991 37.3527637,8.43345849 L34.8097072,24.5058693 C34.75943,24.8226626 35.0051398,25.1095544 35.3270765,25.1095544 L38.3307376,25.1095544 C38.7605271,25.1095544 39.1262537,24.79761 39.1935603,24.3749496 L39.8804126,20.0384373 C39.9469084,19.6149687 40.3134458,19.3030243 40.7432353,19.3030243 L42.7332419,19.3030243 C46.8762507,19.3030243 49.2676644,17.305287 49.8920756,13.3445627 C50.1734661,11.6135136 49.9034285,10.2525955 49.0900721,9.29979117 C48.1956234,8.25243376 46.6102677,7.69804549 44.5059209,7.69804549" id="P" fill="#9A9A9A"></path>
                            <g id="icon">
                                <path d="M21.2556689,2.21207058 C19.8962814,0.663783468 17.4389896,0 14.2955076,0 L5.17202004,0 C4.52886898,0 3.982353,0.46740743 3.88165763,1.10116646 L0.0828436689,25.1767065 C0.00732214299,25.6514171 0.37518506,26.0814969 0.856736295,26.0814969 L6.48918042,26.0814969 L7.90378793,17.1155512 L7.85993672,17.3963203 C7.96063209,16.7625612 8.50308778,16.2951538 9.14542678,16.2951538 L11.8219746,16.2951538 C17.0800594,16.2951538 21.1972006,14.1609845 22.3998606,7.98731134 C22.4355912,7.80473031 22.4664495,7.62701811 22.4932474,7.45336327 C22.3413923,7.37302762 22.3413923,7.37302762 22.4932474,7.45336327 C22.8513656,5.17150616 22.4908113,3.61835022 21.2556689,2.21207058" id="P" fill="#9A9A9A"></path>
                                <path d="M22.4698825,7.37882776 L22.4698825,7.37882776 C22.4423111,7.55257918 22.412307,7.72875505 22.3766263,7.91058793 C21.1756484,14.0581557 17.0642657,16.1843883 11.8135353,16.1843883 L9.1399201,16.1843883 C8.49847952,16.1843883 7.95678254,16.6498805 7.85703894,17.2810426 L6.09976746,28.3833545 C6.03408264,28.7971253 6.3552084,29.1721052 6.77526683,29.1721052 L11.5167372,29.1721052 C12.0778964,29.1721052 12.5555304,28.7647995 12.6431101,28.2128357 L12.6893328,27.9720081 L13.5829706,22.3279154 L13.6405462,22.0159709 C13.7281259,21.4640071 14.2057599,21.0567015 14.7669191,21.0567015 L15.4764773,21.0567015 C20.0695486,21.0567015 23.6659949,19.1971572 24.7169519,13.8189445 C25.1556616,11.57149 24.9286029,9.69497464 23.7681712,8.37688826 C23.4162304,7.97766406 22.9791426,7.64794043 22.4698825,7.37882776" id="shadow" fill="#B6B6B6"></path>
                                <path d="M21.2129509,6.87939344 C21.0296822,6.82605579 20.840737,6.77756702 20.6461153,6.73473527 C20.4514936,6.69190353 20.2503846,6.65392066 20.04441,6.62078667 C19.322688,6.50441362 18.5344702,6.44945968 17.687866,6.44945968 L10.5460617,6.44945968 C10.3700912,6.44945968 10.203041,6.48905884 10.053831,6.56098385 C9.72378511,6.71857235 9.4796971,7.02890047 9.41968875,7.40953731 L7.90163974,17.001424 L7.85784986,17.2810426 C7.95759346,16.6498805 8.49929044,16.1843883 9.14073102,16.1843883 L11.8143462,16.1843883 C17.0650766,16.1843883 21.1764594,14.0589639 22.3774372,7.91058793 C22.4131179,7.72875505 22.4431221,7.55257918 22.4706935,7.37882776 C22.1665971,7.21881482 21.8373621,7.08062183 21.4829885,6.96344064 C21.3945978,6.93434737 21.3045853,6.90606226 21.2129509,6.87939344" id="fill" fill="#AAA9A9"></path>
                            </g>
                        </g>
                    </g>
                </g>
            </g>
        </g>
    </g>
</svg>